<svg height="496pt" viewBox="0 0 496 496" width="496pt" xmlns="http://www.w3.org/2000/svg"><path d="m472 152v16h-144v-16c0-8.800781 7.199219-16 16-16h112c8.800781 0 16 7.199219 16 16zm0 0" fill="#aab2bd"/><path d="m456 112v24h-112v-112c0-8.800781 7.199219-16 16-16h80c8.800781 0 16 7.199219 16 16zm0 0" fill="#ff826e"/><path d="m376 40h48v32h-48zm0 0" fill="#e6e9ed"/><path d="m287.519531 200.238281c2.800781-.160156 5.601563-.238281 8.480469-.238281 79.519531 0 144 64.480469 144 144s-64.480469 144-144 144-144-64.480469-144-144c0-16.960938 2.960938-33.28125 8.320312-48.398438 4.480469-12.5625 10.640626-24.320312 18.320313-34.960937h.078125c17.042969-24.242187 41.601562-42.878906 70.242188-52.71875 12.160156-4.242187 25.117187-6.882813 38.558593-7.683594zm0 0" fill="#e6e9ed"/><path d="m312 440c0 8.835938-7.164062 16-16 16s-16-7.164062-16-16 7.164062-16 16-16 16 7.164062 16 16zm0 0" fill="#ff826e"/><path d="m296 232c61.839844 0 112 50.160156 112 112h-48c0-16.960938-6.640625-32.398438-17.359375-43.839844-11.679687-12.398437-28.242187-20.160156-46.640625-20.160156-35.359375 0-64 28.640625-64 64h-48c0-61.839844 50.160156-112 112-112zm0 0" fill="#fcd770"/><path d="m242.558594 86.238281c-6.878906-9.519531-15.277344-17.917969-24.796875-24.796875-9.363281-6.882812-19.839844-12.320312-31.121094-15.921875-10.878906-3.597656-22.5625-5.519531-34.640625-5.519531s-23.761719 1.921875-34.640625 5.519531c-11.28125 3.601563-21.757813 9.039063-31.121094 15.921875-9.519531 6.878906-17.917969 15.277344-24.796875 24.796875-6.882812 9.363281-12.320312 19.839844-15.921875 31.121094-3.597656 10.878906-5.519531 22.5625-5.519531 34.640625 0 28.078125 10.398438 53.679688 27.441406 73.359375l11.199219 11.199219c19.679687 17.042968 45.28125 27.441406 73.359375 27.441406 9.199219 0 18.078125-1.199219 26.640625-3.359375-7.679687 10.640625-13.839844 22.398437-18.320313 34.960937-2.800781.160157-5.519531.398438-8.320312.398438-79.519531 0-144-64.480469-144-144s64.480469-144 144-144 144 64.480469 144 144c0 16.960938-3.121094 33.199219-8.480469 48.238281-13.441406.800781-26.398437 3.441407-38.558593 7.683594 9.4375-16.5625 15.039062-35.523437 15.039062-55.921875 0-12.078125-1.921875-23.761719-5.519531-34.640625-3.601563-11.28125-9.039063-21.757813-15.921875-31.121094zm0 0" fill="#ff826e"/><path d="m264 152c0 20.398438-5.601562 39.359375-15.039062 55.921875-28.640626 9.839844-53.199219 28.476563-70.242188 52.71875h-.078125c-8.5625 2.160156-17.441406 3.359375-26.640625 3.359375-28.078125 0-53.679688-10.398438-73.359375-27.441406l-11.199219-11.199219c-17.042968-19.679687-27.441406-45.28125-27.441406-73.359375 0-12.078125 1.921875-23.761719 5.519531-34.640625 3.601563-11.28125 9.039063-21.757813 15.921875-31.121094 6.878906-9.519531 15.277344-17.917969 24.796875-24.796875 9.363281-6.882812 19.839844-12.320312 31.121094-15.921875 10.878906-3.597656 22.5625-5.519531 34.640625-5.519531s23.761719 1.921875 34.640625 5.519531c11.28125 3.601563 21.757813 9.039063 31.121094 15.921875 9.519531 6.878906 17.917969 15.277344 24.796875 24.796875 6.882812 9.363281 12.320312 19.839844 15.921875 31.121094 3.597656 10.878906 5.519531 22.5625 5.519531 34.640625zm0 0" fill="#e6e9ed"/><path d="m168 216c0 8.835938-7.164062 16-16 16s-16-7.164062-16-16 7.164062-16 16-16 16 7.164062 16 16zm0 0" fill="#fcd770"/><path d="m298.425781 192.121094c3.664063-13.199219 5.574219-26.648438 5.574219-40.121094 0-83.816406-68.183594-152-152-152s-152 68.183594-152 152c0 82.984375 66.871094 150.550781 149.550781 151.871094-3.519531 12.808594-5.550781 26.226562-5.550781 40.128906 0 83.816406 68.183594 152 152 152s152-68.183594 152-152c0-82.992188-66.886719-150.558594-149.574219-151.878906zm-146.425781 95.878906c-74.992188 0-136-61.007812-136-136s61.007812-136 136-136 136 61.007812 136 136c0 13.6875-2.265625 27.351562-6.503906 40.734375-6.046875.578125-11.976563 1.539063-17.800782 2.800781 5.425782-13.871094 8.304688-28.640625 8.304688-43.535156 0-66.167969-53.832031-120-120-120s-120 53.832031-120 120c0 28.808594 10.457031 56.710938 29.433594 78.566406l12.078125-10.488281c-14.679688-16.910156-23.433594-38-25.152344-60.078125h31.640625v-16h-31.59375c.433594-5.609375 1.320312-11.078125 2.609375-16.398438l30.039063 9.757813 4.9375-15.214844-30.105469-9.777343c2.136719-5.152344 4.738281-10.046876 7.632812-14.75l25.519531 18.535156 9.410157-12.9375-25.554688-18.558594c3.601563-4.222656 7.53125-8.144531 11.746094-11.746094l18.558594 25.554688 12.9375-9.410156-18.535157-25.519532c4.695313-2.902344 9.597657-5.503906 14.75-7.632812l9.777344 30.105468 15.214844-4.9375-9.757812-30.039062c5.324218-1.289062 10.789062-2.175781 16.398437-2.605469v31.574219h16v-31.59375c5.609375.433594 11.078125 1.320312 16.398437 2.609375l-9.757812 30.039063 15.214844 4.9375 9.777344-30.105469c5.152343 2.136719 10.046874 4.738281 14.75 7.632812l-18.535157 25.519531 12.9375 9.410157 18.558594-25.554688c4.222656 3.601563 8.144531 7.53125 11.742187 11.746094l-25.550781 18.558594 9.410157 12.9375 25.519531-18.535157c2.902343 4.695313 5.503906 9.597657 7.628906 14.75l-30.101563 9.777344 4.933594 15.214844 30.042969-9.757812c1.285156 5.324218 2.175781 10.789062 2.605469 16.398437h-31.558594v16h31.65625c-1.136719 14.527344-5.382812 28.734375-12.433594 41.640625-27.703125 10.304688-51.558594 28.414062-68.949218 51.71875-7.546876 1.6875-15.042969 2.65625-22.273438 2.65625-24.953125 0-49.136719-9.0625-68.089844-25.503906l-10.484375 12.078125c21.863281 18.96875 49.765625 29.425781 78.574219 29.425781 3.464844 0 7.007812-.335938 10.535156-.664062-2.902344 5.3125-5.398437 10.863281-7.664062 16.535156-.949219.050781-1.902344.128906-2.871094.128906zm144 192c-74.992188 0-136-61.007812-136-136s61.007812-136 136-136 136 61.007812 136 136-61.007812 136-136 136zm0 0"/><path d="m296 224c-66.167969 0-120 53.832031-120 120v8h64v-8c0-30.871094 25.128906-56 56-56 14.390625 0 27.488281 5.503906 37.414062 14.457031l-37.855468 113.582031c-13.023438.25-23.558594 10.882813-23.558594 23.960938 0 13.230469 10.769531 24 24 24s24-10.769531 24-24c0-7.664062-3.679688-14.433594-9.296875-18.824219l34.578125-103.734375c4.277344 7.910156 6.71875 16.949219 6.71875 26.558594v8h64v-8c0-66.167969-53.832031-120-120-120zm0 224c-4.414062 0-8-3.585938-8-8s3.585938-8 8-8 8 3.585938 8 8-3.585938 8-8 8zm71.550781-112c-1.574219-14.175781-7.328125-27.089844-15.933593-37.574219l7.96875-23.898437-15.171876-5.0625-5.574218 16.71875c-11.976563-8.894532-26.800782-14.183594-42.839844-14.183594-37 0-67.558594 28.046875-71.550781 64h-32.144531c4.101562-53.625 49.039062-96 103.695312-96s99.59375 42.375 103.695312 96zm0 0"/><path d="m432 32h-64v48h64zm-16 32h-32v-16h32zm0 0"/><path d="m488.96875 53.65625-24.96875-24.96875v-4.6875c0-13.230469-10.769531-24-24-24h-80c-13.230469 0-24 10.769531-24 24v105.472656c-9.289062 3.3125-16 12.113282-16 22.527344v24h160v-24c0-10.414062-6.710938-19.214844-16-22.527344v-9.472656h8c13.230469 0 24-10.769531 24-24v-25.375c0-6.410156-2.496094-12.441406-7.03125-16.96875zm-128.96875-37.65625h80c4.414062 0 8 3.585938 8 8v104h-96v-104c0-4.414062 3.585938-8 8-8zm104 144h-128v-8c0-4.414062 3.585938-8 8-8h112c4.414062 0 8 3.585938 8 8zm16-64c0 4.414062-3.585938 8-8 8h-8v-52.6875l13.65625 13.65625c1.496094 1.496094 2.34375 3.550781 2.34375 5.65625zm0 0"/><path d="m152 240c13.230469 0 24-10.769531 24-24 0-10.414062-6.710938-19.214844-16-22.527344v-81.472656h-16v81.472656c-9.289062 3.3125-16 12.113282-16 22.527344 0 13.230469 10.769531 24 24 24zm0-32c4.414062 0 8 3.585938 8 8s-3.585938 8-8 8-8-3.585938-8-8 3.585938-8 8-8zm0 0"/></svg>