<?xml version="1.0" encoding="windows-1252"?>
<!-- Generator: Adobe Illustrator 21.0.0, SVG Export Plug-In . SVG Version: 6.00 Build 0)  -->
<svg version="1.1" id="Capa_1" xmlns="http://www.w3.org/2000/svg" xmlns:xlink="http://www.w3.org/1999/xlink" x="0px" y="0px" viewBox="0 0 593.282 593.282" style="enable-background:new 0 0 593.282 593.282;" xml:space="preserve">
<g>
	<g>
		<g id="filled_outline_5_">
			<path style="fill:#DD381A;" d="M514.178,237.302c-12.419-7.742-25.343-14.634-38.692-20.636l-30.524,30.524H138.432     c-38.88,0-77.077,10.145-110.835,29.437c-10.956,6.249-17.709,17.897-17.709,30.505v58.715h524.066l32.037-12.854     c10.511-4.202,17.403-14.387,17.403-25.709V247.19L514.178,237.302z"/>
			<path style="fill:#4394CC;" d="M475.486,216.666c-42.024-18.965-87.588-28.784-133.696-28.804h-11.648     c-54.424,0-107.977,13.655-155.756,39.72l-35.953,19.608h306.529L475.486,216.666z"/>
			<path style="fill:#3E89BD;" d="M266.977,247.19h177.985l30.524-30.524c-22.574-10.145-46.227-17.69-70.512-22.485L266.977,247.19     z"/>
			<rect x="543.842" y="266.966" style="fill:#F5AE45;" width="39.552" height="19.776"/>
			<path style="fill:#D03418;" d="M9.888,326.295v39.552h524.066l32.037-12.854c10.511-4.202,17.403-14.387,17.403-25.709v-0.989     C583.394,326.295,9.888,326.295,9.888,326.295z"/>
			<path style="fill:#697B8C;" d="M98.88,296.631c-32.769,0-59.328,26.559-59.328,59.328s26.559,59.328,59.328,59.328     s59.328-26.559,59.328-59.328S131.649,296.631,98.88,296.631z"/>
			<circle style="fill:#C3C9D1;" cx="98.88" cy="355.959" r="19.776"/>
			<path style="fill:#697B8C;" d="M474.626,296.631c-32.769,0-59.328,26.559-59.328,59.328s26.559,59.328,59.328,59.328     s59.328-26.559,59.328-59.328S507.395,296.631,474.626,296.631z"/>
			<circle style="fill:#C3C9D1;" cx="474.626" cy="355.959" r="19.776"/>
			<rect x="247.201" y="266.966" width="39.552" height="19.776"/>
			<path d="M584.798,237.401l-67.169-9.591c-12.241-7.525-24.957-14.259-38.059-20.172c-43.28-19.598-90.248-29.714-137.76-29.664     h-11.668c-56.075,0.04-111.25,14.11-160.493,40.927l-33.896,18.491c-39.681,0.445-78.59,10.995-113.07,30.653     C8.672,276.073,0.03,290.984,0,307.132v58.715c0,5.458,4.43,9.888,9.888,9.888h33.204c10.798,30.811,44.526,47.027,75.337,36.23     c16.958-5.943,30.287-19.272,36.23-36.23h264.179c10.798,30.811,44.526,47.027,75.337,36.23     c16.958-5.943,30.287-19.272,36.23-36.23h3.55c1.256,0,2.512-0.237,3.678-0.702l32.027-12.854     c14.308-5.666,23.682-19.509,23.622-34.895V247.19C593.282,242.266,589.663,238.103,584.798,237.401z M137.632,363.869     c-4.371,21.398-25.264,35.201-46.672,30.831s-35.201-25.264-30.831-46.672c4.371-21.398,25.264-35.201,46.672-30.831     c18.412,3.767,31.642,19.964,31.632,38.761C138.432,358.619,138.165,361.269,137.632,363.869z M316.417,355.959H158.209     c0-32.769-26.559-59.328-59.328-59.328s-59.328,26.559-59.328,59.328H19.776v-48.827c0.01-9.057,4.865-17.423,12.726-21.922     c32.265-18.421,68.771-28.122,105.93-28.131h177.985V355.959z M316.417,237.302H177.213l1.908-1.038     c42.271-22.98,89.23-36.002,137.295-38.079V237.302z M336.193,197.75h5.597c39.849-0.049,79.332,7.515,116.343,22.288     l-17.264,17.265H336.193V197.75z M513.377,363.869c-4.371,21.398-25.274,35.201-46.672,30.831     c-21.398-4.371-35.201-25.274-30.831-46.672c4.371-21.398,25.274-35.201,46.672-30.831c18.411,3.767,31.642,19.964,31.632,38.761     C514.178,358.619,513.911,361.269,513.377,363.869z M573.506,266.966h-29.664v19.776h29.664v40.541     c0.03,7.287-4.42,13.843-11.193,16.523l-28.359,11.391c0-0.91-0.119-1.809-0.178-2.719s-0.079-1.978-0.178-2.966     c-0.099-0.989-0.297-1.978-0.455-2.966c-0.158-0.989-0.277-1.978-0.475-2.877s-0.485-1.898-0.742-2.838     c-0.257-0.939-0.455-1.889-0.751-2.808c-0.297-0.92-0.653-1.8-0.989-2.699c-0.336-0.9-0.643-1.829-0.989-2.719     s-0.811-1.701-1.226-2.541c-0.415-0.84-0.821-1.76-1.285-2.61c-0.465-0.85-0.989-1.572-1.434-2.363     c-0.445-0.791-0.989-1.691-1.552-2.502c-0.564-0.811-1.088-1.454-1.632-2.185c-0.544-0.732-1.157-1.592-1.79-2.353     c-0.633-0.761-1.226-1.355-1.839-1.978c-0.613-0.623-1.295-1.463-1.978-2.156s-1.355-1.236-2.037-1.849     c-0.682-0.613-1.414-1.335-2.166-1.978c-0.751-0.643-1.513-1.137-2.264-1.701s-1.503-1.167-2.294-1.691     c-0.791-0.524-1.681-0.989-2.531-1.543c-0.85-0.554-1.543-0.989-2.343-1.414c-0.801-0.425-1.8-0.87-2.709-1.305     c-0.91-0.435-1.622-0.821-2.462-1.177c-0.84-0.356-1.978-0.732-2.966-1.088s-1.632-0.633-2.472-0.9     c-1.127-0.346-2.284-0.593-3.431-0.88c-0.751-0.178-1.473-0.415-2.235-0.574c-1.216-0.247-2.462-0.386-3.698-0.564     c-0.732-0.099-1.434-0.257-2.165-0.326c-1.978-0.198-3.955-0.307-6.032-0.307c-32.749,0.03-59.299,26.579-59.328,59.328h-79.134     v-98.87h108.768c2.62,0,5.142-1.038,6.991-2.897l25.64-25.64c10.768,5.122,21.23,10.847,31.345,17.146     c1.167,0.732,2.472,1.206,3.837,1.404l60.732,8.672V266.966z"/>
		</g>
	</g>
</g>
<g>
</g>
<g>
</g>
<g>
</g>
<g>
</g>
<g>
</g>
<g>
</g>
<g>
</g>
<g>
</g>
<g>
</g>
<g>
</g>
<g>
</g>
<g>
</g>
<g>
</g>
<g>
</g>
<g>
</g>
</svg>