<?xml version="1.0" encoding="iso-8859-1"?>
<!-- Generator: Adobe Illustrator 19.0.0, SVG Export Plug-In . SVG Version: 6.00 Build 0)  -->
<svg version="1.1" id="Capa_1" xmlns="http://www.w3.org/2000/svg" xmlns:xlink="http://www.w3.org/1999/xlink" x="0px" y="0px"
	 viewBox="0 0 512 512" style="enable-background:new 0 0 512 512;" xml:space="preserve">
<path style="fill:#CCCCCC;" d="M375.545,36.004H138.391C7.756,36.004,5.958,77.025,7.826,126.936l10.03,267.517
	c1.698,45.301,35.893,81.542,76.391,81.542h323.505c40.498,0,74.693-36.241,76.391-81.542l10.03-267.517
	C506.04,77.025,504.242,36.004,375.545,36.004z M465.622,125.196l-10.03,267.517c-0.839,22.571-17.822,40.941-37.841,40.941H94.246
	c-20.019,0-37.002-18.37-37.841-40.941l-10.03-267.517c-0.509-13.53,3.556-25.951,11.428-34.961
	c4.745-5.42,12.947-11.88,25.094-11.88H429.1c12.147,0,20.349,6.46,25.094,11.88C462.066,99.246,466.131,111.666,465.622,125.196z"
	/>
<path style="fill:#A6A6A6;" d="M82.898,78.355H60.255c-12.147,0-20.349,6.46-25.094,11.88c-7.872,9.01-11.938,21.431-11.428,34.961
	l10.03,267.517c0.839,22.571,17.822,40.941,37.841,40.941h22.643c-20.019,0-37.002-18.37-37.841-40.941l-10.03-267.517
	c-0.509-13.53,3.556-25.951,11.428-34.961C62.549,84.815,70.751,78.355,82.898,78.355z"/>
<path style="fill:#8C8C8C;" d="M375.545,36.004h-22.643c128.697,0,130.495,41.021,128.627,90.932L471.5,394.453
	c-1.698,45.301-35.893,81.542-76.391,81.542h22.643c40.498,0,74.693-36.241,76.391-81.542l10.03-267.517
	C506.04,77.025,504.242,36.004,375.545,36.004z"/>
<path style="fill:#CCCCCC;" d="M412.732,78.353l-29.708,355.254H329.11c0,0-0.676-34.403-17.169-60.444
	c-2.701-4.34-6.174-7.833-10.417-10.162c-11.96-6.774-31.347-8.945-45.525-8.945c-14.178,0-33.565,2.17-45.525,8.945
	c-4.243,2.329-7.717,5.823-10.417,10.162c-16.493,26.041-17.169,60.444-17.169,60.444h-53.915L99.266,78.353h39.353
	c17.361,97.493,30.767,149.045,54.108,191.388c5.016,9.104,13.408,15.455,22.957,17.149c13.02,2.223,25.575,2.567,40.316,2.567
	s27.296-0.345,40.316-2.567c9.549-1.694,17.941-8.045,22.957-17.149c23.34-42.343,36.747-93.895,54.108-191.388H412.732z"/>
<path style="fill:#8C8C8C;" d="M232.357,354.056c-14.178,0-33.565,2.17-45.525,8.945c-4.243,2.329-7.717,5.823-10.417,10.162
	c-16.493,26.041-17.169,60.444-17.169,60.444h23.642c0,0,0.676-34.403,17.169-60.444c2.701-4.34,6.174-7.833,10.417-10.162
	c8.869-5.024,21.819-7.511,33.704-8.464C240.036,354.205,236.021,354.056,232.357,354.056z"/>
<path style="fill:#A6A6A6;" d="M192.041,286.89c13.019,2.223,25.575,2.567,40.316,2.567c4.094,0,8.008-0.033,11.821-0.119
	c-9.918-0.224-19.091-0.843-28.495-2.448c-9.549-1.694-17.941-8.045-22.957-17.149c-23.34-42.342-36.747-93.895-54.108-191.388
	h-23.642c17.361,97.493,30.767,149.045,54.108,191.388C174.1,278.845,182.492,285.196,192.041,286.89z"/>
<polygon style="fill:#8C8C8C;" points="389.09,78.353 359.382,433.607 383.024,433.607 412.732,78.353 "/>
<path d="M449.615,351.469c-0.155,4.139,3.074,7.62,7.213,7.775c4.154,0.174,7.62-3.075,7.775-7.214l8.49-226.552
	c0.581-15.451-4.134-29.72-13.275-40.174c-5.759-6.593-15.766-14.452-30.738-14.452h-16.364h-39.349H138.63H99.281H82.917
	c-14.972,0-24.979,7.859-30.735,14.449c-9.143,10.457-13.858,24.725-13.277,40.176L48.93,392.996
	c0.991,26.553,21.327,48.155,45.331,48.155h323.475c24.004,0,44.34-21.604,45.331-48.159l0.34-9.083
	c0.155-4.139-3.074-7.621-7.213-7.775c-4.16-0.172-7.62,3.075-7.775,7.214l-0.34,9.084c-0.695,18.593-14.307,33.72-30.344,33.72
	H391.16l28.454-340.297h9.466c7.499,0,14.04,3.136,19.444,9.323c6.614,7.565,10.017,18.126,9.58,29.74L449.615,351.469z
	 M364.402,85.853c-17.382,96.02-30.668,142.103-51.705,180.269c-3.974,7.216-10.424,12.094-17.648,13.375
	c-12,2.049-23.838,2.46-39.05,2.46c-15.211,0-27.05-0.412-39.002-2.452c-7.271-1.29-13.721-6.168-17.697-13.385
	c-21.036-38.165-34.322-84.247-51.704-180.267H364.402z M63.918,392.435l-10.026-267.52c-0.436-11.613,2.966-22.174,9.583-29.742
	c5.402-6.184,11.943-9.32,19.442-9.32h9.466l28.454,340.297H94.261C78.224,426.15,64.612,411.026,63.918,392.435z M376.113,426.107
	h-40.001c-0.354-3.702-0.963-8.588-2.006-14.166c-0.761-4.071-4.674-6.758-8.75-5.994c-4.071,0.761-6.754,4.679-5.993,8.75
	c0.823,4.4,1.342,8.319,1.674,11.453H190.971c1.186-11.071,4.766-32.139,15.459-49.025c2.099-3.373,4.675-5.913,7.657-7.55
	c0.03-0.016,0.059-0.032,0.088-0.049c10.373-5.877,28.406-7.971,41.824-7.971c13.417,0,31.45,2.094,41.824,7.971
	c0.029,0.017,0.058,0.033,0.087,0.049c2.982,1.637,5.559,4.178,7.69,7.601c1.982,3.13,3.828,6.584,5.485,10.267
	c1.7,3.777,6.14,5.46,9.917,3.761c3.777-1.7,5.46-6.14,3.761-9.917c-1.947-4.327-4.131-8.41-6.46-12.086
	c-3.466-5.569-7.883-9.858-13.129-12.749c-16.249-9.181-41.743-9.896-49.175-9.896s-32.925,0.714-49.174,9.895
	c-5.247,2.891-9.664,7.18-13.098,12.699c-12.863,20.313-16.709,44.897-17.852,56.957h-39.991l-28.45-340.254h24.92
	c17.948,99.647,31.7,147.392,53.81,187.506c6.173,11.206,16.456,18.83,28.261,20.924c13.044,2.227,25.578,2.674,41.574,2.674
	s28.53-0.447,41.622-2.683c11.757-2.086,22.04-9.709,28.212-20.914c22.111-40.116,35.863-87.861,53.811-187.508h24.921
	L376.113,426.107z"/>
<path d="M494.648,58.01C475.257,37.877,437.407,28.5,375.53,28.5H138.402c-63.038,0-101.51,9.461-121.075,29.775
	C-1.491,77.814-0.464,105.209,0.361,127.219l0.04,1.064c0.153,4.14,3.65,7.381,7.772,7.216c4.139-0.154,7.369-3.634,7.216-7.773
	l-0.04-1.067c-0.944-25.197-0.581-44.105,12.781-57.978C44.449,51.737,80.52,43.5,138.402,43.5H375.53
	c56.738,0,92.168,8.15,108.315,24.916c13.39,13.903,13.753,32.91,12.804,58.244l-10.024,267.513
	c-1.536,40.984-32.439,74.328-68.888,74.328H94.26c-36.449,0-67.352-33.343-68.887-74.328l-8.805-234.974
	c-0.155-4.14-3.641-7.385-7.775-7.214c-4.139,0.155-7.368,3.636-7.213,7.775l8.805,234.974
	c0.887,23.688,10.003,45.924,25.667,62.612C51.883,474.212,72.555,483.5,94.26,483.5h323.477c21.705,0,42.377-9.288,58.208-26.154
	c15.664-16.688,24.78-38.924,25.667-62.612l10.024-267.513C512.466,105.105,513.497,77.581,494.648,58.01z"/>
<g>
</g>
<g>
</g>
<g>
</g>
<g>
</g>
<g>
</g>
<g>
</g>
<g>
</g>
<g>
</g>
<g>
</g>
<g>
</g>
<g>
</g>
<g>
</g>
<g>
</g>
<g>
</g>
<g>
</g>
</svg>
