<svg height="512pt" viewBox="0 -12 512 511" width="512pt" xmlns="http://www.w3.org/2000/svg"><path d="m278.988281 431.65625h-266.488281c-2.75 0-5-2.25-5-5v22.898438c0 2.75 2.25 5 5 5h290.085938c-8.816407-6.578126-16.75-14.28125-23.597657-22.898438zm0 0" fill="#b3b3b3"/><path d="m7.5 426.65625c0 2.75 2.25 5 5 5h266.488281c-17.265625-21.734375-27.59375-49.277344-27.59375-79.25 0-57.222656 37.628907-105.613281 89.382813-121.566406v-73.285156h-333.277344zm0 0" fill="#c5ccd3"/><path d="m7.5 403.65625c0 2.75 2.25 5 5 5h251.933594c-8.339844-16.960938-13.035156-36.050781-13.035156-56.25 0-57.222656 37.628906-105.613281 89.378906-121.566406v-73.285156h-333.277344zm0 0" fill="#e6e9ed"/><path d="m333.367188 37.871094h-34.453126v29.277344c0 2.75-2.25 5-5 5h-20.117187c-2.75 0-5-2.25-5-5v-29.277344h-43.023437v29.277344c0 2.75-2.25 5-5 5h-20.125c-2.75 0-5-2.25-5-5v-29.277344h-43.019532v29.277344c0 2.75-2.25 5-5 5h-20.121094c-2.75 0-5-2.25-5-5v-29.277344h-43.027343v29.277344c0 2.75-2.25 5-5 5h-20.121094c-2.75 0-5-2.25-5-5v-29.277344h-34.453125c-4.074219 0-7.40625 3.308594-7.40625 7.347656v112.335938h333.277344v-112.335938c0-4.042969-3.335938-7.347656-7.410156-7.347656zm0 0" fill="#ef5050"/><g fill="#c6a07d"><path d="m79.480469 67.148438c0 2.75-2.25 5-5 5h-20.121094c-2.75 0-5-2.25-5-5v-54.148438c0-2.75 2.25-5 5-5h20.121094c2.75 0 5 2.25 5 5zm0 0"/><path d="m152.628906 67.148438c0 2.75-2.25 5-5 5h-20.121094c-2.75 0-5-2.25-5-5v-54.148438c0-2.75 2.25-5 5-5h20.121094c2.75 0 5 2.25 5 5zm0 0"/><path d="m225.769531 67.148438c0 2.75-2.25 5-5 5h-20.121093c-2.75 0-5-2.25-5-5v-54.148438c0-2.75 2.25-5 5-5h20.121093c2.75 0 5 2.25 5 5zm0 0"/><path d="m298.914062 67.148438c0 2.75-2.25 5-5 5h-20.117187c-2.75 0-5-2.25-5-5v-54.148438c0-2.75 2.25-5 5-5h20.117187c2.75 0 5 2.25 5 5zm0 0"/></g><path d="m504.5 352.40625c0-70.21875-56.660156-127.144531-126.550781-127.144531-69.894531 0-126.554688 56.925781-126.554688 127.144531 0 70.222656 56.660157 127.148438 126.554688 127.148438 69.890625 0 126.550781-56.925782 126.550781-127.148438zm0 0" fill="#368c0e"/><path d="m377.949219 446.09375c-51.421875 0-93.25-42.027344-93.25-93.6875s41.828125-93.6875 93.25-93.6875c51.414062 0 93.246093 42.027344 93.246093 93.6875s-41.832031 93.6875-93.246093 93.6875zm0 0" fill="#fff"/><path d="m377.949219 366.355469c-7.75 0-14.054688-6.257813-14.054688-13.949219 0-7.6875 6.304688-13.945312 14.054688-13.945312s14.050781 6.257812 14.050781 13.945312c0 7.691406-6.300781 13.949219-14.050781 13.949219zm0 0" fill="#89c947"/><path d="m455.4375 110.746094c18.164062-10.792969 31.105469-38.757813 31.105469-71.558594h-95.460938c0 32.800781 12.941407 60.765625 31.105469 71.558594-18.164062 10.792968-31.105469 38.757812-31.105469 71.558594h95.460938c0-32.800782-12.941407-60.761719-31.105469-71.558594zm0 0" fill="#a2f9f9"/><path d="m470.039062 182.304688-27.027343-25.621094c-2.308594-2.191406-6.089844-2.191406-8.402344 0l-27.023437 25.621094zm0 0" fill="#c6a07d"/><path d="m153.230469 320.753906c-14.484375 0-26.269531-11.667968-26.269531-26.015625 0-4.140625-3.355469-7.5-7.5-7.5-4.144532 0-7.5 3.359375-7.5 7.5 0 22.617188 18.515624 41.015625 41.269531 41.015625 22.757812 0 41.273437-18.398437 41.273437-41.015625 0-13.097656-6.398437-25.125-16.46875-32.71875 10.070313-7.59375 16.46875-19.621093 16.46875-32.71875 0-22.617187-18.515625-41.019531-41.273437-41.019531-22.753907 0-41.269531 18.402344-41.269531 41.019531 0 4.140625 3.355468 7.5 7.5 7.5 4.144531 0 7.5-3.359375 7.5-7.5 0-14.347656 11.785156-26.019531 26.269531-26.019531 14.488281 0 26.273437 11.671875 26.273437 26.019531 0 12.113281-8.664062 22.789063-20.605468 25.390625-3.445313.75-5.902344 3.800782-5.902344 7.328125 0 3.527344 2.457031 6.578125 5.902344 7.328125 11.941406 2.601563 20.605468 13.277344 20.605468 25.390625.003906 14.347657-11.785156 26.015625-26.273437 26.015625zm0 0"/><path d="m209.519531 203.285156h11.796875v124.972656c0 4.140626 3.359375 7.5 7.5 7.5 4.144532 0 7.5-3.359374 7.5-7.5v-132.472656c0-4.144531-3.355468-7.5-7.5-7.5h-19.296875c-4.144531 0-7.5 3.355469-7.5 7.5 0 4.140625 3.355469 7.5 7.5 7.5zm0 0"/><path d="m229.992188 105.765625h-111.707032c-4.140625 0-7.5 3.355469-7.5 7.5 0 4.140625 3.359375 7.5 7.5 7.5h111.707032c4.144531 0 7.5-3.359375 7.5-7.5 0-4.144531-3.355469-7.5-7.5-7.5zm0 0"/><path d="m377.949219 217.761719c-10.195313 0-20.125 1.152343-29.671875 3.328125v-175.871094c0-8.1875-6.6875-14.847656-14.910156-14.847656h-26.953126v-17.371094c0-6.890625-5.605468-12.5-12.5-12.5h-20.117187c-6.894531 0-12.5 5.609375-12.5 12.5v17.371094h-28.023437v-17.371094c0-6.890625-5.609376-12.5-12.5-12.5h-20.125c-6.890626 0-12.5 5.609375-12.5 12.5v17.371094h-28.019532v-17.371094c0-6.890625-5.609375-12.5-12.5-12.5h-20.121094c-6.894531 0-12.5 5.609375-12.5 12.5v17.371094h-28.027343v-17.371094c0-6.890625-5.605469-12.5-12.5-12.5h-20.121094c-6.890625 0-12.5 5.609375-12.5 12.5v17.371094h-26.953125c-8.21875 0-14.90625 6.660156-14.90625 14.847656v404.335938c0 6.890624 5.605469 12.5 12.5 12.5h287.726562c21.9375 15.730468 48.773438 25 77.722657 25 73.914062 0 134.050781-60.402344 134.050781-134.648438 0-74.242188-60.136719-134.644531-134.050781-134.644531zm-101.652344-202.261719h15.117187v49.148438h-15.117187zm-73.148437 0h15.121093v49.148438h-15.121093zm-73.140626 0h15.121094v49.148438h-15.121094zm-73.148437 0h15.121094v49.148438h-15.121094zm-41.859375 29.871094h26.859375v21.777344c0 6.894531 5.609375 12.5 12.5 12.5h20.121094c6.894531 0 12.5-5.605469 12.5-12.5v-21.777344h28.027343v21.777344c0 6.894531 5.605469 12.5 12.5 12.5h20.121094c6.890625 0 12.5-5.605469 12.5-12.5v-21.777344h28.019532v21.777344c0 6.894531 5.609374 12.5 12.5 12.5h20.121093c6.894531 0 12.5-5.605469 12.5-12.5v-21.777344h28.023438v21.777344c0 6.894531 5.609375 12.5 12.5 12.5h20.121093c6.894532 0 12.5-5.605469 12.5-12.5v-21.777344h26.863282v104.683594h-318.277344zm0 370.785156h45c4.144531 0 7.5-3.359375 7.5-7.5s-3.355469-7.5-7.5-7.5h-45v-236.101562h318.277344v60.402343c-52.015625 18.519531-89.382813 68.433594-89.382813 126.949219 0 3.148438.117188 6.269531.332031 9.363281-.042968 0-.085937-.003906-.128906-.003906h-139.917968c-4.144532 0-7.5 3.355469-7.5 7.5 0 4.140625 3.355468 7.5 7.5 7.5h139.917968c.675782 0 1.328125-.097656 1.953125-.265625 1.539063 8.523438 3.882813 16.769531 6.941407 24.65625h-156.992188c-4.144531 0-7.5 3.359375-7.5 7.5s3.355469 7.5 7.5 7.5h163.898438c1.464843 2.726562 3.023437 5.390625 4.664062 8h-249.5625zm0 30.898438v-7.898438h260.515625c2.292969 2.726562 4.6875 5.363281 7.183594 7.898438zm362.949219 25c-65.648438 0-119.054688-53.671876-119.054688-119.648438 0-65.972656 53.40625-119.644531 119.054688-119.644531 65.644531 0 119.050781 53.671875 119.050781 119.644531s-53.40625 119.648438-119.050781 119.648438zm0 0"/><path d="m377.949219 251.222656c-55.554688 0-100.75 45.390625-100.75 101.183594 0 55.796875 45.195312 101.1875 100.75 101.1875 18.773437 0 37.109375-5.246094 53.019531-15.171875 3.515625-2.195313 4.585938-6.820313 2.394531-10.335937-2.191406-3.515626-6.820312-4.585938-10.332031-2.394532-13.527344 8.441406-29.117188 12.902344-45.082031 12.902344-47.28125 0-85.75-38.664062-85.75-86.1875s38.46875-86.1875 85.75-86.1875 85.746093 38.664062 85.746093 86.1875c0 17.652344-5.292968 34.628906-15.3125 49.101562-2.359374 3.40625-1.507812 8.078126 1.898438 10.4375 3.40625 2.355469 8.078125 1.507813 10.433594-1.898437 11.761718-16.988281 17.980468-36.921875 17.980468-57.640625 0-55.792969-45.195312-101.183594-100.746093-101.183594zm0 0"/><path d="m430.222656 303.644531c-2.800781-3.050781-7.546875-3.246093-10.597656-.445312l-32.460938 29.851562c-2.800781-1.328125-5.917968-2.089843-9.214843-2.089843-3.007813 0-5.871094.621093-8.472657 1.730468l-20.742187-20.652344c-2.9375-2.921874-7.683594-2.910156-10.605469.023438-2.925781 2.9375-2.914062 7.683594.019532 10.609375l20.445312 20.355469c-1.394531 2.835937-2.199219 6.011718-2.199219 9.378906 0 11.828125 9.667969 21.449219 21.550781 21.449219 11.886719 0 21.554688-9.621094 21.554688-21.449219 0-3.070312-.664062-5.988281-1.839844-8.632812l32.117188-29.53125c3.050781-2.804688 3.25-7.546876.445312-10.597657zm-52.273437 55.210938c-3.613281 0-6.554688-2.890625-6.554688-6.449219 0-3.554688 2.941407-6.445312 6.554688-6.445312s6.550781 2.890624 6.550781 6.445312c0 3.558594-2.9375 6.449219-6.550781 6.449219zm0 0"/><path d="m301.605469 351.710938v1.394531c0 4.140625 3.355469 7.5 7.5 7.5 4.140625 0 7.5-3.359375 7.5-7.5v-1.394531c0-4.140626-3.359375-7.5-7.5-7.5s-7.5 3.359374-7.5 7.5zm0 0"/><path d="m454.292969 353.105469v-1.394531c0-4.140626-3.359375-7.5-7.5-7.5-4.144531 0-7.5 3.359374-7.5 7.5v1.394531c0 4.140625 3.355469 7.5 7.5 7.5 4.140625 0 7.5-3.359375 7.5-7.5zm0 0"/><path d="m378.648438 291.582031c4.144531 0 7.5-3.359375 7.5-7.5s-3.355469-7.5-7.5-7.5h-1.40625c-4.140626 0-7.5 3.359375-7.5 7.5s3.359374 7.5 7.5 7.5zm0 0"/><path d="m377.242188 413.230469c-4.140626 0-7.5 3.359375-7.5 7.5 0 4.144531 3.359374 7.5 7.5 7.5h1.40625c4.144531 0 7.5-3.355469 7.5-7.5 0-4.140625-3.355469-7.5-7.5-7.5zm0 0"/><path d="m504.5 174.804688h-10.675781c-1.527344-26.792969-11.175781-50.378907-25.976563-64.058594 14.800782-13.679688 24.449219-37.261719 25.976563-64.058594h10.675781c4.144531 0 7.5-3.359375 7.5-7.5s-3.355469-7.5-7.5-7.5h-33.5c-4.144531 0-7.5 3.359375-7.5 7.5s3.355469 7.5 7.5 7.5h7.792969c-1.703125 26.09375-12.195313 48.703125-27.1875 57.613281-2.273438 1.351563-3.667969 3.800781-3.667969 6.445313 0 2.644531 1.394531 5.097656 3.667969 6.445312 14.992187 8.910156 25.488281 31.515625 27.191406 57.613282h-5.769531l-24.855469-23.566407c-2.519531-2.386719-5.84375-3.703125-9.363281-3.703125-3.519532 0-6.84375 1.316406-9.359375 3.703125l-24.855469 23.566407h-5.769531c1.707031-26.09375 12.203125-48.703126 27.195312-57.613282 2.273438-1.351562 3.667969-3.800781 3.667969-6.445312 0-2.644532-1.394531-5.09375-3.667969-6.445313-14.992187-8.910156-25.484375-31.519531-27.191406-57.613281h36.171875c4.144531 0 7.5-3.359375 7.5-7.5s-3.355469-7.5-7.5-7.5h-61.875c-4.144531 0-7.5 3.359375-7.5 7.5s3.355469 7.5 7.5 7.5h10.675781c1.527344 26.792969 11.175781 50.378906 25.976563 64.058594-14.800782 13.679687-24.449219 37.265625-25.976563 64.058594h-10.675781c-4.144531 0-7.5 3.359374-7.5 7.5 0 4.140624 3.355469 7.5 7.5 7.5h131.375c4.144531 0 7.5-3.359376 7.5-7.5 0-4.140626-3.355469-7.5-7.5-7.5zm-78.105469 0 12.417969-11.769532 12.414062 11.769532zm0 0"/><path d="m433.511719 127.078125c-1.402344 1.398437-2.203125 3.328125-2.203125 5.300781 0 1.976563.800781 3.90625 2.203125 5.308594 1.386719 1.390625 3.328125 2.191406 5.296875 2.191406 1.980468 0 3.910156-.800781 5.3125-2.191406 1.390625-1.402344 2.1875-3.332031 2.1875-5.308594 0-1.972656-.796875-3.902344-2.1875-5.300781-1.402344-1.402344-3.332032-2.199219-5.3125-2.199219-1.96875 0-3.910156.796875-5.296875 2.199219zm0 0"/></svg>