<?xml version="1.0" standalone="no"?>
<!DOCTYPE svg PUBLIC "-//W3C//DTD SVG 20010904//EN"
 "http://www.w3.org/TR/2001/REC-SVG-20010904/DTD/svg10.dtd">
<svg version="1.0" xmlns="http://www.w3.org/2000/svg"
 width="1280.000000pt" height="640.000000pt" viewBox="0 0 1280.000000 640.000000"
 preserveAspectRatio="xMidYMid meet">
<metadata>
Created by potrace 1.15, written by Peter Selinger 2001-2017
</metadata>
<g transform="translate(0.000000,640.000000) scale(0.100000,-0.100000)"
fill="#000000" stroke="none">
<path d="M2415 4404 c-643 -34 -1191 -63 -1217 -63 l-47 -1 -353 -312 c-710
-627 -772 -685 -789 -737 -8 -24 -10 -88 -5 -210 10 -254 34 -580 46 -622 19
-67 40 -74 210 -71 l85 2 28 112 c39 161 72 225 165 321 138 143 241 192 426
204 192 11 323 -31 450 -148 102 -94 206 -262 206 -334 1 -94 -5 -94 1255 -25
204 11 691 38 1083 60 393 22 722 40 731 40 15 0 23 21 45 113 41 169 72 225
185 338 145 144 239 182 456 183 86 0 136 -4 175 -16 186 -58 377 -256 429
-445 11 -43 29 -84 38 -91 14 -10 48 -13 138 -10 140 5 187 21 204 70 27 77
-4 627 -37 660 -27 27 -327 67 -1549 208 l-263 30 -451 405 c-248 223 -457
404 -463 404 -6 -1 -537 -30 -1181 -65z m1446 -339 c134 -115 290 -255 347
-310 91 -90 102 -104 102 -136 0 -51 -18 -69 -85 -85 -96 -22 -460 -47 -1090
-74 -132 -5 -303 -13 -381 -16 -175 -8 -200 -3 -213 39 -24 77 -59 619 -44
677 7 28 16 37 45 47 35 11 255 27 793 57 132 8 250 13 261 12 12 0 128 -93
265 -211z m-1532 121 c17 -20 28 -140 42 -428 13 -294 10 -319 -42 -330 -55
-11 -310 -27 -859 -52 l-515 -24 -43 41 c-23 23 -47 58 -53 78 -20 64 7 101
343 475 l191 212 66 6 c36 3 170 10 296 16 127 6 255 12 285 14 173 8 278 6
289 -8z"/>
<path d="M8740 4064 l-450 -404 -263 -30 c-1222 -141 -1522 -181 -1549 -208
-33 -33 -64 -583 -37 -660 17 -49 64 -65 204 -70 90 -3 124 0 138 10 9 7 27
48 38 91 52 189 243 387 429 445 39 12 89 16 175 16 217 -1 311 -39 456 -183
113 -113 144 -169 185 -338 22 -92 30 -113 45 -113 9 0 338 -18 731 -40 2145
-119 2211 -122 2287 -100 41 11 51 24 51 65 0 72 104 240 206 334 127 117 258
159 450 148 185 -12 288 -61 426 -204 93 -96 126 -160 165 -321 l28 -112 85
-2 c170 -3 191 4 210 71 12 42 36 368 46 622 5 122 3 186 -5 210 -17 52 -79
110 -789 737 -257 227 -360 312 -377 312 -30 0 -2285 117 -2373 123 l-62 5
-450 -404z m780 196 c410 -20 702 -41 738 -53 29 -10 38 -19 45 -47 15 -58
-20 -600 -44 -677 -13 -42 -38 -47 -213 -39 -78 3 -249 11 -381 16 -630 27
-994 52 -1090 74 -67 16 -85 34 -85 85 0 32 11 46 103 136 56 55 212 196 347
312 l245 212 60 -4 c33 -3 157 -10 275 -15z m1624 -85 c249 -14 261 -15 281
-37 12 -13 100 -111 196 -218 316 -353 339 -386 320 -449 -6 -20 -30 -55 -53
-78 l-43 -41 -515 24 c-549 25 -804 41 -859 52 -52 11 -55 36 -42 330 14 293
25 408 43 429 14 18 182 15 672 -12z"/>
<path d="M6354 4241 c-2 -2 -4 -157 -4 -343 l0 -338 50 0 50 0 -2 341 -3 342
-43 1 c-24 0 -46 -1 -48 -3z"/>
<path d="M5897 4199 c-37 -19 -37 -20 -23 -52 37 -86 268 -573 275 -580 11
-11 82 24 79 39 -6 22 -283 614 -288 614 -3 -1 -22 -10 -43 -21z"/>
<path d="M6715 3919 c-77 -166 -141 -307 -143 -313 -3 -15 68 -50 79 -39 7 7
238 494 275 580 14 33 14 33 -26 53 -21 11 -41 20 -42 20 -2 0 -66 -136 -143
-301z"/>
<path d="M5450 4075 l-34 -36 242 -242 242 -242 35 35 35 35 -243 243 -243
242 -34 -35z"/>
<path d="M7072 3867 l-242 -243 35 -34 36 -34 242 242 242 242 -35 35 -35 35
-243 -243z"/>
<path d="M5263 3075 c-87 -19 -188 -70 -238 -119 -73 -74 -132 -246 -122 -360
15 -181 174 -382 327 -415 28 -6 93 -11 145 -11 114 0 178 21 259 84 152 118
207 259 177 456 -29 193 -172 339 -361 369 -81 13 -109 13 -187 -4z"/>
<path d="M7341 3079 c-181 -32 -323 -181 -352 -369 -30 -197 25 -338 177 -456
91 -71 147 -87 289 -82 135 5 169 16 251 78 68 51 147 170 175 262 17 55 21
86 16 142 -6 82 -52 212 -96 273 -79 109 -297 181 -460 152z"/>
<path d="M901 2849 c-219 -43 -374 -252 -358 -483 10 -155 120 -317 259 -385
179 -87 377 -50 529 99 115 113 141 196 120 385 -14 121 -39 179 -111 252
-114 116 -274 165 -439 132z"/>
<path d="M11676 2844 c-78 -19 -154 -63 -216 -127 -72 -73 -97 -131 -111 -252
-21 -189 5 -272 120 -385 241 -236 592 -178 741 123 35 70 43 96 47 163 22
321 -263 555 -581 478z"/>
</g>
</svg>
